<svg width="32" height="32" viewBox="0 0 32 32" fill="none" xmlns="http://www.w3.org/2000/svg">
<g clip-path="url(#clip0_602_39)">
<path fill-rule="evenodd" clip-rule="evenodd" d="M22.9199 10.5474L27.7797 15.4073L14.834 15.4073L14.834 15.4116L14.1494 15.4116L14.1494 17.0005L14.834 17.0005L14.834 17.0083L27.7797 17.0083L22.9199 21.8681L24.0518 23L30.278 16.7737L30.844 16.2078L24.0518 9.41553L22.9199 10.5474ZM12.6763 16.9927L10.0686 16.9927L10.0686 15.3828L12.6763 15.3828L12.6763 16.9927ZM5.98788 16.9927L8.59558 16.9927L8.59558 15.3828L5.98788 15.3828L5.98788 16.9927ZM4.51477 16.9927L1.90707 16.9927L1.90707 15.3828L4.51477 15.3828L4.51477 16.9927Z" fill="black"/>
</g>
<defs>
<clipPath id="clip0_602_39">
<rect width="32" height="32" fill="white" transform="translate(32 32) rotate(180)"/>
</clipPath>
</defs>
</svg>
